<svg width="24" height="24" viewBox="0 0 26 26" fill="none" xmlns="http://www.w3.org/2000/svg">
<path d="M9.44097 4.23077L10.3056 2.18154C10.4514 1.83458 10.708 1.53614 11.0416 1.32531C11.3753 1.11449 11.7705 1.0011 12.1756 1H13.8244C14.2294 1.0011 14.6247 1.11449 14.9583 1.32531C15.292 1.53614 15.5486 1.83458 15.6944 2.18154L16.559 4.23077L19.4946 5.78154L21.8673 5.44923C22.2624 5.39999 22.6645 5.4597 23.0226 5.62078C23.3806 5.78185 23.6783 6.03701 23.878 6.35385L24.6823 7.64615C24.8884 7.96803 24.9835 8.33972 24.9548 8.71216C24.926 9.0846 24.775 9.4403 24.5214 9.73231L23.0536 11.4492V14.5508L24.5617 16.2677C24.8152 16.5597 24.9662 16.9154 24.995 17.2878C25.0237 17.6603 24.9286 18.032 24.7225 18.3538L23.9182 19.6462C23.7186 19.963 23.4208 20.2181 23.0629 20.3793C22.7047 20.5402 22.3026 20.6001 21.9075 20.5508L19.5348 20.2185L16.5992 21.7692L15.7346 23.8185C15.5888 24.1654 15.3322 24.4639 14.9986 24.6747C14.6649 24.8855 14.2696 24.9989 13.8646 25H12.1756C11.7705 24.9989 11.3753 24.8855 11.0416 24.6747C10.708 24.4639 10.4514 24.1654 10.3056 23.8185L9.44097 21.7692L6.50528 20.2185L4.13261 20.5508C3.73754 20.6001 3.33543 20.5402 2.9774 20.3793C2.61938 20.2181 2.32159 19.963 2.12187 19.6462L1.31757 18.3538C1.11147 18.032 1.01652 17.6603 1.04523 17.2878C1.07395 16.9154 1.225 16.5597 1.47843 16.2677L2.94627 14.5508V11.4492L1.43821 9.73231C1.18478 9.4403 1.03373 9.0846 1.00502 8.71216C0.976307 8.33972 1.07125 7.96803 1.27735 7.64615L2.08165 6.35385C2.28138 6.03701 2.57917 5.78185 2.93718 5.62078C3.29521 5.4597 3.69732 5.39999 4.09239 5.44923L6.46507 5.78154L9.44097 4.23077ZM8.97849 13C8.97849 13.7303 9.21435 14.4441 9.65623 15.0513C10.0981 15.6585 10.7262 16.1318 11.461 16.4112C12.1959 16.6907 13.0044 16.7638 13.7845 16.6214C14.5646 16.4789 15.2812 16.1272 15.8436 15.6108C16.406 15.0945 16.789 14.4366 16.9442 13.7203C17.0994 13.0041 17.0197 12.2617 16.7153 11.587C16.411 10.9123 15.8955 10.3357 15.2342 9.92996C14.5729 9.52425 13.7953 9.30769 13 9.30769C11.9334 9.30769 10.9105 9.6967 10.1564 10.3892C9.4022 11.0816 8.97849 12.0207 8.97849 13Z" stroke="#6E6E6E" stroke-width="2" stroke-linecap="round" stroke-linejoin="round"/>
</svg>
